<svg width="72" height="48" viewBox="0 0 72 48" fill="none" xmlns="http://www.w3.org/2000/svg">
<path fill-rule="evenodd" clip-rule="evenodd" d="M52.4786 11.1116C51.6883 11.1116 50.9769 11.7356 50.9769 12.429V29.5558H7.50823C3.39846 29.5558 0 32.5374 0 36.143V41.4128C0 45.0184 3.39846 48 7.50823 48H64.4918C68.6015 48 72 45.0184 72 41.4128V36.143C72 32.5374 68.6015 29.5558 64.4918 29.5558H53.9802V12.429C53.9802 11.7356 53.348 11.1116 52.4786 11.1116ZM66.2305 0.36403C65.6773 -0.121343 64.7289 -0.121343 64.0966 0.36403C63.5434 0.849404 63.5434 1.68147 64.0966 2.23619C70.4984 7.85265 70.4984 17.0748 64.0966 22.6912C63.5434 23.1766 63.5434 24.0087 64.0966 24.5634C64.4127 24.8407 64.8079 24.9794 65.124 24.9794C65.5192 24.9794 65.9144 24.8407 66.1515 24.5634C73.7387 17.9068 73.7387 7.02059 66.1515 0.36403H66.2305ZM40.7816 2.23619C41.3348 1.75081 41.3348 0.918743 40.7816 0.36403C40.2283 -0.121343 39.2799 -0.121343 38.6476 0.36403C31.0604 7.02059 31.0604 17.9068 38.6476 24.5634C38.9638 24.8407 39.3589 24.9794 39.6751 24.9794C40.0703 24.9794 40.4654 24.8407 40.7025 24.5634C41.2558 24.078 41.2558 23.2459 40.7025 22.6912C34.3008 17.0748 34.3008 7.85265 40.7025 2.23619H40.7816ZM61.9627 4.10834C61.4094 3.62297 60.461 3.62297 59.8288 4.10834C59.2755 4.59372 59.2755 5.42579 59.8288 5.9805C63.9385 9.58613 63.9385 15.4106 59.8288 19.0163C59.2755 19.5016 59.2755 20.3337 59.8288 20.8884C60.1449 21.1658 60.5401 21.3044 60.8562 21.3044C61.2514 21.3044 61.6465 21.1658 61.8836 20.8884C67.1789 16.2427 67.1789 8.75406 61.8836 4.17768L61.9627 4.10834ZM44.9704 5.9805C45.5236 5.49512 45.5236 4.66306 44.9704 4.10834C44.4171 3.62297 43.4687 3.62297 42.8364 4.10834C37.5412 8.75406 37.5412 16.2427 42.8364 20.8191C43.1526 21.0964 43.5478 21.2351 43.8639 21.2351C44.2591 21.2351 44.6542 21.0964 44.8913 20.8191C45.4446 20.3337 45.4446 19.5016 44.8913 18.9469C40.7816 15.3413 40.7816 9.51679 44.8913 5.91116L44.9704 5.9805ZM57.6948 7.85265C57.1416 7.36728 56.1932 7.36728 55.5609 7.85265C55.0077 8.33803 55.0077 9.1701 55.5609 9.72481C56.4303 10.4875 56.9045 11.4583 56.9045 12.4984C56.9045 13.5385 56.4303 14.5785 55.5609 15.2719C55.0077 15.7573 55.0077 16.5894 55.5609 17.1441C55.8771 17.4215 56.2722 17.5601 56.5884 17.5601C56.9835 17.5601 57.3787 17.4215 57.6158 17.1441C59.0384 15.896 59.8288 14.2319 59.8288 12.4984C59.8288 10.7649 59.0384 9.10076 57.6158 7.85265H57.6948ZM47.8946 12.4984C47.8946 11.4583 48.3688 10.4875 49.2382 9.72481C49.7914 9.23944 49.7914 8.40737 49.2382 7.85265C48.685 7.36728 47.7366 7.36728 47.1043 7.85265C45.6817 9.10076 44.8913 10.7649 44.8913 12.4984C44.8913 14.2319 45.6817 15.896 47.1043 17.1441C47.4204 17.4215 47.8156 17.5601 48.1317 17.5601C48.5269 17.5601 48.9221 17.4215 49.1592 17.1441C49.7124 16.6587 49.7124 15.8267 49.1592 15.2719C48.2898 14.5092 47.8156 13.5385 47.8156 12.4984H47.8946ZM10.4325 40.0953C9.64215 40.0953 8.93085 39.4713 8.93085 38.7779C8.93085 38.0845 9.64215 37.4605 10.4325 37.4605C11.2228 37.4605 11.9341 38.0152 11.9341 38.7779C11.9341 39.4713 11.3019 40.0953 10.4325 40.0953ZM19.4424 40.0953C18.652 40.0953 17.9407 39.4713 17.9407 38.7779C17.9407 38.0845 18.573 37.4605 19.4424 37.4605C20.2327 37.4605 20.944 38.0152 20.944 38.7779C20.944 39.4713 20.2327 40.0953 19.4424 40.0953ZM28.4523 40.0953C27.6619 40.0953 26.9506 39.4713 26.9506 38.7779C26.9506 38.0845 27.6619 37.4605 28.4523 37.4605C29.2426 37.4605 29.9539 38.0152 29.9539 38.7779C29.9539 39.4713 29.3216 40.0953 28.4523 40.0953ZM37.4621 40.0953C36.6718 40.0953 35.9605 39.4713 35.9605 38.7779C35.9605 38.0845 36.5928 37.4605 37.4621 37.4605C38.2525 37.4605 38.9638 38.0152 38.9638 38.7779C38.9638 39.4713 38.3315 40.0953 37.4621 40.0953ZM61.4885 40.0953H46.472C45.6817 40.0953 44.9704 39.4713 44.9704 38.7779C44.9704 38.0845 45.6817 37.4605 46.472 37.4605H61.4885C62.2788 37.4605 62.9901 38.0152 62.9901 38.7779C62.9901 39.4713 62.2788 40.0953 61.4885 40.0953Z" fill="#00AAB5"/>
</svg>
