<svg width="38" height="37" viewBox="0 0 38 37" fill="none" xmlns="http://www.w3.org/2000/svg">
<rect x="0.5" y="0.5" width="37" height="36" rx="17.5" fill="#0D0D0D"/>
<rect x="0.5" y="0.5" width="37" height="36" rx="17.5" stroke="white"/>
<mask id="mask0_525_108" style="mask-type:alpha" maskUnits="userSpaceOnUse" x="11" y="11" width="16" height="16">
<rect x="11" y="11" width="16" height="16" fill="#333333"/>
</mask>
<g mask="url(#mask0_525_108)">
<path d="M18.3333 16.9998V14.9998H16.3333V13.6665H18.3333V11.6665H19.6667V13.6665H21.6667V14.9998H19.6667V16.9998H18.3333ZM15.6667 25.6665C15.3 25.6665 14.9861 25.5359 14.725 25.2748C14.4639 25.0137 14.3333 24.6998 14.3333 24.3332C14.3333 23.9665 14.4639 23.6526 14.725 23.3915C14.9861 23.1304 15.3 22.9998 15.6667 22.9998C16.0333 22.9998 16.3472 23.1304 16.6083 23.3915C16.8694 23.6526 17 23.9665 17 24.3332C17 24.6998 16.8694 25.0137 16.6083 25.2748C16.3472 25.5359 16.0333 25.6665 15.6667 25.6665ZM22.3333 25.6665C21.9667 25.6665 21.6528 25.5359 21.3917 25.2748C21.1305 25.0137 21 24.6998 21 24.3332C21 23.9665 21.1305 23.6526 21.3917 23.3915C21.6528 23.1304 21.9667 22.9998 22.3333 22.9998C22.7 22.9998 23.0139 23.1304 23.275 23.3915C23.5361 23.6526 23.6667 23.9665 23.6667 24.3332C23.6667 24.6998 23.5361 25.0137 23.275 25.2748C23.0139 25.5359 22.7 25.6665 22.3333 25.6665ZM11.6667 13.6665V12.3332H13.85L16.6833 18.3332H21.35L23.95 13.6665H25.4667L22.5333 18.9665C22.4111 19.1887 22.2472 19.3609 22.0417 19.4832C21.8361 19.6054 21.6111 19.6665 21.3667 19.6665H16.4L15.6667 20.9998H23.6667V22.3332H15.6667C15.1667 22.3332 14.7861 22.1165 14.525 21.6832C14.2639 21.2498 14.2555 20.8109 14.5 20.3665L15.4 18.7332L13 13.6665H11.6667Z" fill="white"/>
</g>
</svg>
