<svg width="62" height="44" viewBox="0 0 62 44" fill="none" xmlns="http://www.w3.org/2000/svg">
<path d="M62 0H0V7.12033H62V0Z" fill="#00AAB5"/>
<path d="M56.4326 10.7719H5.57031V14.0582H56.4326V10.7719Z" fill="#00AAB5"/>
<path d="M27.5663 33.5934C27.6898 33.8253 27.8369 34.0443 28.0053 34.247C28.0715 34.2136 28.147 34.2019 28.2205 34.2138C28.294 34.2256 28.3617 34.2604 28.4137 34.3129C28.4656 34.3654 28.4991 34.4329 28.5091 34.5055C28.5191 34.5781 28.5052 34.652 28.4693 34.7162C28.6963 34.9097 28.9455 35.0764 29.2119 35.2128C29.2574 35.1493 29.3236 35.1029 29.3995 35.0813C29.4754 35.0597 29.5565 35.0641 29.6295 35.0938C29.7025 35.1236 29.7631 35.1769 29.8012 35.2449C29.8393 35.313 29.8528 35.3918 29.8393 35.4684C30.0602 35.5364 30.287 35.5843 30.5168 35.6118C30.5292 35.5284 30.5724 35.4524 30.6382 35.3984C30.704 35.3444 30.7877 35.3162 30.8734 35.3191C30.959 35.3221 31.0405 35.356 31.1023 35.4143C31.1641 35.4727 31.2018 35.5515 31.2083 35.6355C31.5071 35.6197 31.8031 35.5694 32.09 35.4858V35.4785C32.0688 35.437 32.0563 35.3917 32.0533 35.3454C32.0504 35.299 32.057 35.2526 32.0729 35.2088C32.0887 35.165 32.1134 35.1249 32.1455 35.0908C32.1776 35.0567 32.2163 35.0294 32.2595 35.0105C32.3026 34.9916 32.3492 34.9814 32.3964 34.9807C32.4436 34.98 32.4905 34.9888 32.5342 35.0064C32.5779 35.0241 32.6174 35.0502 32.6505 35.0834C32.6836 35.1165 32.7096 35.1559 32.7267 35.1991C32.7323 35.211 32.736 35.2229 32.7407 35.2347C32.978 35.1166 33.2026 34.975 33.4108 34.8121C33.3891 34.7993 33.3689 34.7843 33.3504 34.7674C33.2889 34.7033 33.2547 34.6184 33.255 34.5303C33.2554 34.4421 33.2902 34.3575 33.3522 34.2939C33.4142 34.2303 33.4988 34.1926 33.5883 34.1887C33.6778 34.1847 33.7655 34.2147 33.8331 34.2726C33.8592 34.2973 33.8811 34.326 33.8981 34.3575C34.0986 34.1348 34.2718 33.8897 34.4141 33.6272C34.3629 33.6304 34.3116 33.6226 34.2637 33.6044C34.1776 33.5714 34.1083 33.5062 34.071 33.423C34.0338 33.3398 34.0316 33.2455 34.0651 33.1607C34.0986 33.076 34.1649 33.0078 34.2495 32.9712C34.3341 32.9345 34.43 32.9324 34.5162 32.9654C34.5731 32.9867 34.6231 33.0226 34.661 33.0694C34.7584 32.7929 34.8225 32.5062 34.8522 32.215C34.8078 32.2468 34.7564 32.2679 34.7022 32.2764C34.648 32.2849 34.5925 32.2808 34.5402 32.2642C34.488 32.2476 34.4404 32.2191 34.4015 32.181C34.3626 32.1429 34.3334 32.0962 34.3163 32.0449C34.2993 31.9936 34.2948 31.939 34.3032 31.8857C34.3117 31.8323 34.3329 31.7817 34.365 31.7379C34.3972 31.6941 34.4394 31.6584 34.4883 31.6338C34.5371 31.6092 34.5912 31.5962 34.6461 31.5961C34.7272 31.5957 34.8058 31.6235 34.868 31.6746C34.8556 31.3415 34.7982 31.0114 34.6972 30.6932C34.6794 30.7347 34.6533 30.7723 34.6204 30.8036C34.5876 30.835 34.5487 30.8595 34.506 30.8758C34.4524 30.8969 34.3944 30.9046 34.337 30.8981C34.2797 30.8917 34.2249 30.8713 34.1775 30.8389C34.1302 30.8064 34.0918 30.7629 34.0658 30.7122C34.0398 30.6616 34.0271 30.6053 34.0286 30.5486C34.0302 30.4919 34.0462 30.4364 34.0749 30.3872C34.1037 30.338 34.1445 30.2967 34.1936 30.2668C34.2427 30.237 34.2986 30.2196 34.3562 30.2163C34.4138 30.213 34.4713 30.2238 34.5236 30.2478C34.3667 29.9089 34.16 29.5946 33.9101 29.3148C33.9135 29.3841 33.8955 29.4528 33.8583 29.5117C33.8211 29.5707 33.7666 29.6172 33.702 29.645C33.6374 29.6728 33.5657 29.6806 33.4965 29.6675C33.4272 29.6543 33.3637 29.6208 33.3142 29.5713C33.2496 29.5064 33.2138 29.4189 33.2147 29.328C33.2156 29.2372 33.253 29.1503 33.3189 29.0866C33.3535 29.0529 33.3949 29.0267 33.4405 29.0099C33.4861 28.993 33.5348 28.9859 33.5834 28.9889C33.277 28.719 32.929 28.4987 32.5522 28.3362C32.5788 28.3982 32.5862 28.4666 32.5736 28.5327C32.5609 28.5989 32.5286 28.6599 32.4809 28.7081C32.4332 28.7563 32.372 28.7896 32.3052 28.8038C32.2383 28.8181 32.1686 28.8126 32.1049 28.7881C32.0425 28.7643 31.9885 28.7234 31.9492 28.6701C31.9098 28.6169 31.887 28.5537 31.8832 28.488C31.8795 28.4223 31.8951 28.357 31.9282 28.2998C31.9612 28.2426 32.0103 28.196 32.0696 28.1655C31.7701 28.0807 31.4613 28.0319 31.1498 28.0204C31.1812 28.0644 31.2016 28.1151 31.2094 28.1683C31.2172 28.2215 31.2121 28.2757 31.1946 28.3267C31.1771 28.3776 31.1476 28.4237 31.1086 28.4614C31.0696 28.499 31.0221 28.5271 30.97 28.5433C30.9179 28.5595 30.8626 28.5635 30.8087 28.5548C30.7547 28.5461 30.7036 28.5251 30.6595 28.4933C30.6154 28.4616 30.5795 28.4201 30.5547 28.3722C30.5299 28.3243 30.5169 28.2713 30.5168 28.2176C30.5168 28.1554 30.5341 28.0945 30.5669 28.0414C30.2208 28.0793 29.8814 28.1631 29.5581 28.2906C29.5929 28.3217 29.6207 28.3597 29.6397 28.402C29.6584 28.443 29.6686 28.4873 29.6699 28.5322C29.6711 28.5772 29.6634 28.6219 29.647 28.664C29.6307 28.706 29.6061 28.7444 29.5747 28.777C29.5433 28.8097 29.5056 28.8359 29.4638 28.8543C29.4221 28.8726 29.3771 28.8827 29.3314 28.8839C29.2857 28.8852 29.2402 28.8775 29.1975 28.8615C29.1548 28.8454 29.1157 28.8212 29.0825 28.7903C29.0493 28.7594 29.0226 28.7224 29.004 28.6813C28.9887 28.6487 28.979 28.6138 28.9752 28.5781C28.7416 28.7199 28.5238 28.8854 28.3255 29.072C28.3448 29.0839 28.3628 29.0976 28.3793 29.1131C28.4409 29.1771 28.475 29.262 28.4747 29.3501C28.4744 29.4383 28.4396 29.5229 28.3776 29.5865C28.3155 29.6501 28.231 29.6878 28.1415 29.6918C28.0519 29.6958 27.9643 29.6657 27.8967 29.6079C27.8878 29.5995 27.8795 29.5907 27.8716 29.5814C27.7113 29.7966 27.5747 30.0279 27.4642 30.2715C27.5514 30.3012 27.6231 30.3637 27.6635 30.4454C27.7039 30.527 27.7096 30.6211 27.6795 30.7069C27.6493 30.7928 27.5858 30.8633 27.5027 30.903C27.4197 30.9427 27.324 30.9484 27.2368 30.9187C27.1817 31.1416 27.1469 31.3689 27.1328 31.5979C27.2142 31.6091 27.2889 31.6483 27.3437 31.7084C27.3986 31.7686 27.43 31.8459 27.4324 31.9267C27.4349 32.0075 27.4082 32.0865 27.3571 32.1498C27.306 32.2131 27.2338 32.2566 27.1532 32.2725C27.1811 32.5114 27.2323 32.7471 27.3064 32.9763C27.3842 32.9631 27.4644 32.9763 27.5336 33.0138C27.6028 33.0513 27.657 33.1108 27.6873 33.1826C27.7175 33.2544 27.722 33.3342 27.7 33.4089C27.678 33.4836 27.6308 33.5486 27.5663 33.5934ZM28.4164 33.2748C28.3524 33.3002 28.2821 33.3063 28.2145 33.2923C28.1469 33.2783 28.085 33.2449 28.0367 33.1964C27.9884 33.1478 27.9559 33.0862 27.9432 33.0195C27.9305 32.9527 27.9382 32.8837 27.9654 32.8212C27.9926 32.7588 28.038 32.7057 28.0959 32.6687C28.1538 32.6316 28.2216 32.6123 28.2907 32.6132C28.3597 32.614 28.427 32.635 28.4839 32.6735C28.5408 32.712 28.5849 32.7662 28.6104 32.8293C28.6435 32.9133 28.6416 33.0067 28.6053 33.0893C28.5691 33.1719 28.5012 33.2373 28.4164 33.2712V33.2748ZM29.1283 34.1019C29.0792 34.1492 29.0168 34.1811 28.9492 34.1937C28.8816 34.2062 28.8117 34.1987 28.7484 34.1722C28.6851 34.1456 28.6313 34.1013 28.5936 34.0446C28.5559 33.988 28.5362 33.9217 28.5368 33.854C28.5375 33.7864 28.5585 33.7204 28.5972 33.6645C28.636 33.6086 28.6907 33.5652 28.7545 33.5398C28.8183 33.5145 28.8883 33.5083 28.9556 33.5221C29.023 33.5358 29.0847 33.5689 29.133 33.6171C29.1967 33.6818 29.2319 33.7686 29.2311 33.8586C29.2302 33.9487 29.1933 34.0348 29.1283 34.0982V34.1019ZM30.1873 34.614C30.1625 34.6771 30.1191 34.7316 30.0628 34.7705C30.0064 34.8095 29.9396 34.8311 29.8708 34.8326C29.802 34.8342 29.7342 34.8156 29.6761 34.7793C29.618 34.743 29.5721 34.6905 29.5443 34.6286C29.5165 34.5666 29.5081 34.4979 29.5199 34.4312C29.5318 34.3646 29.5636 34.3028 29.6111 34.2539C29.6587 34.2049 29.72 34.1709 29.7872 34.1562C29.8544 34.1415 29.9245 34.1468 29.9887 34.1713C30.0737 34.2043 30.1421 34.2688 30.1792 34.3509C30.2163 34.433 30.2193 34.5262 30.1873 34.6103V34.614ZM30.8658 35.0175C30.7967 35.0177 30.7291 34.9977 30.6716 34.96C30.614 34.9224 30.5692 34.8688 30.5426 34.806C30.5161 34.7433 30.5091 34.6742 30.5226 34.6075C30.536 34.5408 30.5693 34.4796 30.6181 34.4315C30.667 34.3835 30.7292 34.3508 30.797 34.3376C30.8648 34.3243 30.9351 34.3312 30.9989 34.3573C31.0627 34.3834 31.1172 34.4275 31.1554 34.4841C31.1937 34.5407 31.214 34.6072 31.2139 34.6752C31.2129 34.7653 31.1758 34.8514 31.1106 34.9149C31.0454 34.9783 30.9575 35.0138 30.8658 35.0138V35.0175ZM32.142 34.75C32.0791 34.7776 32.0093 34.7862 31.9414 34.7748C31.8735 34.7634 31.8106 34.7325 31.7605 34.686C31.7104 34.6395 31.6755 34.5795 31.66 34.5135C31.6446 34.4475 31.6493 34.3784 31.6737 34.3151C31.698 34.2517 31.7409 34.1969 31.7969 34.1574C31.8528 34.118 31.9194 34.0957 31.9883 34.0934C32.0571 34.0911 32.1251 34.1089 32.1836 34.1445C32.2422 34.1801 32.2888 34.232 32.3174 34.2936C32.355 34.3765 32.3577 34.4707 32.3248 34.5556C32.2919 34.6405 32.2262 34.7091 32.142 34.7464V34.75ZM33.1193 34.0727C33.0716 34.1215 33.0102 34.1552 32.943 34.1697C32.8757 34.1842 32.8056 34.1788 32.7415 34.154C32.6774 34.1293 32.6222 34.0865 32.5828 34.0309C32.5435 33.9753 32.5218 33.9095 32.5205 33.8418C32.5192 33.7741 32.5384 33.7075 32.5756 33.6505C32.6127 33.5935 32.6662 33.5486 32.7294 33.5216C32.7925 33.4945 32.8623 33.4864 32.9301 33.4984C32.9979 33.5104 33.0605 33.5419 33.1101 33.5889C33.1756 33.6516 33.2133 33.7372 33.2151 33.8271C33.2168 33.917 33.1824 34.0039 33.1193 34.069V34.0727ZM33.7793 33.0557C33.7542 33.1188 33.7108 33.1731 33.6544 33.2119C33.598 33.2507 33.5312 33.2721 33.4625 33.2736C33.3937 33.275 33.326 33.2564 33.268 33.22C33.2099 33.1837 33.1642 33.1312 33.1365 33.0693C33.1087 33.0074 33.1003 32.9387 33.1122 32.8721C33.1241 32.8054 33.1558 32.7438 33.2034 32.6948C33.2509 32.6459 33.3121 32.6119 33.3792 32.5972C33.4464 32.5825 33.5165 32.5877 33.5806 32.6121C33.666 32.6449 33.7347 32.7096 33.7719 32.7919C33.809 32.8743 33.8117 32.9678 33.7793 33.0521V33.0557ZM33.9918 31.943C33.992 32.0109 33.9717 32.0773 33.9334 32.1339C33.8952 32.1905 33.8408 32.2346 33.777 32.2607C33.7133 32.2868 33.6431 32.2938 33.5753 32.2806C33.5075 32.2675 33.4453 32.2349 33.3964 32.1869C33.3475 32.1389 33.3141 32.0778 33.3006 32.0112C33.2871 31.9446 33.2939 31.8755 33.3203 31.8127C33.3467 31.75 33.3914 31.6963 33.4488 31.6585C33.5062 31.6208 33.5738 31.6006 33.6428 31.6006C33.7346 31.6006 33.8226 31.6362 33.888 31.6995C33.9533 31.7629 33.9906 31.8491 33.9918 31.9393V31.943ZM33.3207 30.6084C33.3849 30.5832 33.4552 30.5773 33.5227 30.5914C33.5902 30.6055 33.652 30.639 33.7002 30.6876C33.7484 30.7363 33.7808 30.7979 33.7933 30.8647C33.8059 30.9315 33.798 31.0004 33.7707 31.0628C33.7434 31.1252 33.6979 31.1782 33.64 31.2151C33.5821 31.2521 33.5143 31.2713 33.4452 31.2703C33.3762 31.2694 33.309 31.2483 33.2521 31.2097C33.1953 31.1712 33.1513 31.1169 33.1258 31.0538C33.0917 30.9693 33.0931 30.875 33.1296 30.7914C33.1661 30.7079 33.2349 30.6421 33.3207 30.6084ZM32.6079 29.7813C32.6566 29.7335 32.7187 29.701 32.7862 29.6879C32.8536 29.6747 32.9236 29.6815 32.9871 29.7075C33.0507 29.7334 33.105 29.7773 33.1432 29.8336C33.1814 29.8898 33.2018 29.956 33.2018 30.0237C33.2018 30.0913 33.1814 30.1575 33.1432 30.2138C33.105 30.27 33.0507 30.3139 32.9871 30.3398C32.9236 30.3658 32.8536 30.3726 32.7862 30.3595C32.7187 30.3463 32.6566 30.3138 32.6079 30.266C32.5421 30.2023 32.5046 30.1155 32.5037 30.0246C32.5029 29.9337 32.5387 29.8462 32.6033 29.7813H32.6079ZM31.5489 29.2692C31.5738 29.206 31.6171 29.1516 31.6735 29.1126C31.7298 29.0737 31.7966 29.0521 31.8655 29.0506C31.9343 29.049 32.0021 29.0676 32.0602 29.1039C32.1183 29.1402 32.1641 29.1926 32.1919 29.2546C32.2197 29.3166 32.2282 29.3852 32.2163 29.4519C32.2044 29.5186 32.1727 29.5804 32.1251 29.6293C32.0775 29.6783 32.0163 29.7122 31.9491 29.727C31.8819 29.7417 31.8117 29.7364 31.7475 29.7119C31.7045 29.6961 31.6651 29.6721 31.6316 29.6412C31.5981 29.6104 31.5711 29.5733 31.5522 29.5322C31.5333 29.491 31.5229 29.4466 31.5215 29.4015C31.5202 29.3563 31.5279 29.3114 31.5443 29.2692H31.5489ZM30.8704 28.8657C30.9392 28.8664 31.0062 28.8871 31.063 28.9251C31.1199 28.9632 31.164 29.0168 31.1899 29.0795C31.2159 29.1421 31.2224 29.2108 31.2088 29.2771C31.1951 29.3434 31.1618 29.4042 31.1132 29.4519C31.0645 29.4997 31.0026 29.5322 30.9352 29.5455C30.8677 29.5587 30.7979 29.5521 30.7343 29.5265C30.6707 29.5008 30.6162 29.4572 30.5777 29.4012C30.5391 29.3452 30.5183 29.2793 30.5178 29.2117C30.5173 29.1664 30.5259 29.1215 30.5432 29.0795C30.5604 29.0376 30.586 28.9994 30.6184 28.9672C30.6507 28.9351 30.6893 28.9095 30.7318 28.8921C30.7742 28.8747 30.8198 28.8657 30.8658 28.8657H30.8704ZM29.5952 29.1332C29.6581 29.1058 29.7279 29.0973 29.7958 29.1089C29.8636 29.1204 29.9265 29.1514 29.9764 29.198C30.0264 29.2446 30.0612 29.3047 30.0765 29.3707C30.0919 29.4367 30.087 29.5057 30.0625 29.569C30.0381 29.6323 29.9951 29.6871 29.9391 29.7264C29.8831 29.7658 29.8165 29.7879 29.7477 29.7901C29.6788 29.7923 29.6109 29.7745 29.5524 29.7388C29.4939 29.7031 29.4474 29.6512 29.4188 29.5896C29.3995 29.5486 29.3886 29.5042 29.3868 29.459C29.385 29.4138 29.3923 29.3687 29.4082 29.3263C29.4242 29.2839 29.4485 29.245 29.4798 29.2118C29.5111 29.1787 29.5487 29.152 29.5905 29.1332H29.5952ZM30.8704 29.8835C31.2811 29.8834 31.6826 30.003 32.0242 30.2272C32.3658 30.4515 32.632 30.7704 32.7893 31.1435C32.9466 31.5166 32.9879 31.9273 32.9079 32.3234C32.8278 32.7196 32.6302 33.0836 32.3398 33.3693C32.0495 33.6549 31.6796 33.8495 31.2768 33.9284C30.874 34.0073 30.4565 33.9669 30.077 33.8123C29.6976 33.6578 29.3733 33.3961 29.1451 33.0602C28.9169 32.7244 28.7951 32.3295 28.7951 31.9256C28.7954 31.385 29.0134 30.8666 29.4015 30.4838C29.7897 30.1011 30.3162 29.8852 30.8658 29.8835H30.8704ZM28.6169 29.8096C28.6648 29.7606 28.7263 29.7267 28.7938 29.7121C28.8612 29.6976 28.9315 29.703 28.9958 29.7278C29.0601 29.7526 29.1155 29.7955 29.155 29.8513C29.1944 29.907 29.2162 29.973 29.2175 30.0409C29.2188 30.1088 29.1996 30.1756 29.1623 30.2328C29.125 30.2899 29.0713 30.3349 29.008 30.362C28.9447 30.3892 28.8746 30.3972 28.8066 30.3852C28.7387 30.3731 28.6759 30.3415 28.6262 30.2943C28.5929 30.2634 28.566 30.2264 28.5473 30.1853C28.5285 30.1442 28.5182 30.0998 28.5169 30.0548C28.5156 30.0098 28.5234 29.9649 28.5398 29.9229C28.5561 29.8808 28.5808 29.8423 28.6123 29.8096H28.6169ZM27.957 30.8274C27.982 30.7644 28.0254 30.7101 28.0818 30.6713C28.1382 30.6325 28.205 30.6111 28.2738 30.6096C28.3426 30.6082 28.4103 30.6268 28.4683 30.6631C28.5263 30.6995 28.5721 30.752 28.5998 30.8139C28.6275 30.8758 28.636 30.9444 28.6241 31.0111C28.6122 31.0777 28.5804 31.1394 28.5329 31.1883C28.4854 31.2373 28.4242 31.2712 28.357 31.286C28.2899 31.3007 28.2198 31.2955 28.1556 31.2711C28.1126 31.2552 28.0732 31.2311 28.0396 31.2001C28.0061 31.1692 27.9791 31.132 27.9602 31.0908C27.9414 31.0496 27.9309 31.0051 27.9296 30.9599C27.9282 30.9147 27.936 30.8697 27.9524 30.8274H27.957ZM28.0934 31.597C28.1625 31.5968 28.2301 31.6168 28.2877 31.6544C28.3452 31.6921 28.3901 31.7457 28.4166 31.8084C28.4431 31.8712 28.4501 31.9403 28.4367 32.007C28.4233 32.0736 28.39 32.1349 28.3411 32.1829C28.2923 32.231 28.23 32.2637 28.1622 32.2769C28.0944 32.2901 28.0242 32.2832 27.9604 32.2572C27.8966 32.2311 27.8421 32.1869 27.8038 32.1303C27.7655 32.0738 27.7452 32.0073 27.7454 31.9393C27.7454 31.8493 27.7814 31.7629 27.8457 31.6988C27.91 31.6348 27.9973 31.5982 28.0888 31.597H28.0934Z" fill="#00AAB5"/>
<path d="M30.8651 32.5891C30.999 32.5893 31.13 32.5504 31.2414 32.4774C31.3528 32.4043 31.4397 32.3004 31.491 32.1787C31.5423 32.0571 31.5558 31.9232 31.5297 31.7941C31.5037 31.6649 31.4392 31.5462 31.3445 31.4531C31.2498 31.36 31.1292 31.2966 30.9978 31.2709C30.8665 31.2453 30.7304 31.2585 30.6067 31.309C30.483 31.3595 30.3774 31.4449 30.3031 31.5545C30.2288 31.6641 30.1893 31.7929 30.1895 31.9246C30.1897 32.1007 30.261 32.2696 30.3876 32.3942C30.5143 32.5188 30.686 32.5889 30.8651 32.5891Z" fill="#00AAB5"/>
<path d="M29.3308 44H32.6721C45.7951 44 56.4326 33.5368 56.4326 20.6307H5.57031C5.57031 33.5368 16.2087 44 29.3308 44ZM31.0014 27.4151C31.889 27.4151 32.7566 27.674 33.4946 28.159C34.2326 28.644 34.8078 29.3333 35.1474 30.1398C35.4871 30.9463 35.576 31.8337 35.4028 32.6899C35.2296 33.5461 34.8022 34.3325 34.1746 34.9498C33.547 35.5671 32.7474 35.9874 31.8769 36.1577C31.0064 36.328 30.1041 36.2406 29.2841 35.9066C28.4641 35.5725 27.7633 35.0068 27.2702 34.2809C26.7771 33.5551 26.5139 32.7018 26.5139 31.8288C26.5139 31.2492 26.6299 30.6753 26.8555 30.1398C27.081 29.6043 27.4115 29.1177 27.8283 28.7079C28.245 28.298 28.7397 27.9729 29.2841 27.7511C29.8286 27.5293 30.4121 27.4151 31.0014 27.4151Z" fill="#00AAB5"/>
</svg>
