<svg width="56" height="56" viewBox="0 0 56 56" fill="none" xmlns="http://www.w3.org/2000/svg">
<path fill-rule="evenodd" clip-rule="evenodd" d="M55.6279 1.11443C55.6279 1.11443 55.6279 1.11443 55.6279 1.02156C55.2558 0.464345 54.6047 0.092869 53.8605 0.092869H16.5581C15.3488 0.092869 14.3256 1.11443 14.3256 2.32172V11.4229V15.5091V46.9917C14.3256 47.4561 14.4186 47.8275 14.6977 48.199C14.6977 48.199 14.6977 48.199 14.6977 48.2919C15.0698 48.8491 15.7209 49.2206 16.4651 49.2206H19.1628C18.6977 52.1924 16.186 54.5141 13.0233 54.5141C9.86047 54.5141 7.34884 52.1924 6.88372 49.1277H9.67442C10.8837 49.1277 11.907 48.1061 11.907 46.8988V2.22886C11.907 1.76451 11.814 1.39303 11.5349 1.02156C11.5349 1.02156 11.5349 1.02156 11.5349 0.92869C11.1628 0.371476 10.5116 0 9.76744 0H2.23256C1.02326 0 0 1.02156 0 2.22886V46.8988C0 47.3632 0.0930233 47.7347 0.372093 48.1061C0.372093 48.1061 0.372093 48.1061 0.372093 48.199C0.744186 48.7562 1.39535 49.1277 2.13953 49.1277H5.39535C5.86047 52.9353 9.02326 56 13.0233 56C16.9302 56 20.186 53.0282 20.6512 49.2206H53.7674C54.9767 49.2206 56 48.199 56 46.9917V2.32172C56 1.85738 55.907 1.4859 55.6279 1.11443ZM28.3721 33.1542C28.3721 33.7114 27.907 34.0829 27.4419 34.0829H22.2326C21.6744 34.0829 21.3023 33.7114 21.3023 33.1542V30.9254C21.3023 30.3682 21.6744 29.9967 22.2326 29.9967H27.4419C28 29.9967 28.3721 30.461 28.3721 30.9254V33.1542ZM28.3721 25.7247C28.3721 26.2819 27.907 26.6534 27.4419 26.6534H22.2326C21.6744 26.6534 21.3023 26.1891 21.3023 25.7247V23.4959C21.3023 22.9386 21.6744 22.5672 22.2326 22.5672H27.4419C28 22.5672 28.3721 23.0315 28.3721 23.4959V25.7247ZM28.3721 18.2952C28.3721 18.8524 27.907 19.2239 27.4419 19.2239H22.2326C21.6744 19.2239 21.3023 18.7595 21.3023 18.2952V16.0663C21.3023 15.5091 21.6744 15.1376 22.2326 15.1376H27.4419C28 15.1376 28.3721 15.602 28.3721 16.0663V18.2952ZM38.6047 33.1542C38.6047 33.7114 38.2326 34.0829 37.6744 34.0829H32.4651C31.907 34.0829 31.5349 33.7114 31.5349 33.1542V30.9254C31.5349 30.3682 31.907 29.9967 32.4651 29.9967H37.6744C38.2326 29.9967 38.6047 30.461 38.6047 30.9254V33.1542ZM38.6047 25.7247C38.6047 26.2819 38.2326 26.6534 37.6744 26.6534H32.4651C31.907 26.6534 31.5349 26.1891 31.5349 25.7247V23.4959C31.5349 22.9386 31.907 22.5672 32.4651 22.5672H37.6744C38.2326 22.5672 38.6047 23.0315 38.6047 23.4959V25.7247ZM38.6047 18.2952C38.6047 18.8524 38.2326 19.2239 37.6744 19.2239H32.4651C31.907 19.2239 31.5349 18.7595 31.5349 18.2952V16.0663C31.5349 15.5091 31.907 15.1376 32.4651 15.1376H37.6744C38.2326 15.1376 38.6047 15.602 38.6047 16.0663V18.2952ZM48.8372 33.1542C48.8372 33.7114 48.3721 34.0829 47.907 34.0829H42.7907C42.2326 34.0829 41.8605 33.7114 41.8605 33.1542V30.9254C41.8605 30.3682 42.2326 29.9967 42.7907 29.9967H47.907C48.4651 29.9967 48.8372 30.461 48.8372 30.9254V33.1542ZM48.8372 25.7247C48.8372 26.2819 48.3721 26.6534 47.907 26.6534H42.7907C42.2326 26.6534 41.8605 26.1891 41.8605 25.7247V23.4959C41.8605 22.9386 42.2326 22.5672 42.7907 22.5672H47.907C48.4651 22.5672 48.8372 23.0315 48.8372 23.4959V25.7247ZM48.8372 18.2952C48.8372 18.8524 48.3721 19.2239 47.907 19.2239H42.7907C42.2326 19.2239 41.8605 18.7595 41.8605 18.2952V16.0663C41.8605 15.5091 42.2326 15.1376 42.7907 15.1376H47.907C48.4651 15.1376 48.8372 15.602 48.8372 16.0663V18.2952Z" fill="#00AAB5"/>
</svg>
